<?xml version="1.0" encoding="utf-8"?>
<!-- Generator: Adobe Illustrator 27.5.0, SVG Export Plug-In . SVG Version: 6.00 Build 0)  -->
<svg version="1.1" id="Layer_1" xmlns="http://www.w3.org/2000/svg" xmlns:xlink="http://www.w3.org/1999/xlink" x="0px" y="0px"
	 viewBox="152 7 100 100" >
<g>
  <g>
    <path style="fill:#63971C;" d="M203.492,101.422c0.217,0.163,14.498-11.518,15.87-12.605c5.175-4.104,10.647-8.688,13.609-14.722
      c9.913-20.182-3.37-41.736-16.718-56.613c-2.621-2.921-7.785-7.865-11.986-8.187c-5.801-0.444-9.827,4.852-13.351,8.648
      c-8.062,8.687-14.812,17.248-18.313,28.768c-2.227,7.33-2.121,14.676-0.347,22.093c1.219,5.096,2.968,10.15,5.96,14.495
      c3.336,4.844,8.355,7.979,13.332,10.929c3.128,1.853,6.386,3.487,9.462,5.426C201.843,100.177,202.664,100.795,203.492,101.422z"
      />
    <path style="fill:#1E580C;" d="M204.452,92.741c0.103-0.229,0.172-0.423,0.171-0.504
      c-0.25-12.111-0.982-22.803-1.033-34.922c-0.052-12.36-0.61-24.715-0.44-37.077c0.002-0.09-0.12-0.042-0.123,0.024
      c-0.582,12.466-0.36,24.913-0.45,37.386c-0.053,7.235-0.208,14.564,0.006,21.86C203.174,83.926,203.651,88.36,204.452,92.741z"/>
  </g>
  <path style="fill:#1E580C;" d="M216.252,17.482c-2.513-2.801-7.365-7.452-11.465-8.112
    c5.301,3.093,10.287,6.599,14.043,11.605c4.346,5.791,7.535,12.553,9.176,19.612c1.621,6.979,1.88,14.818,0.187,21.817
    c-1.45,5.988-4.197,11.728-7.67,16.801c-3.347,4.889-7.463,9.5-12.701,12.399c-0.156,0.087-0.316,0.002-0.376-0.152
    c-2.962-7.57-2.925-15.95-3.695-23.934c-0.646-6.703-0.836-13.43-0.894-20.158c-0.339,1.974-0.707,3.944-0.947,5.933
    c-0.608,5.053-0.784,10.15-0.957,15.231c-0.171,5.022,1.459,22.507,0.673,26.168c-0.03,0.143-0.184,0.207-0.314,0.18
    c-10.492-2.231-20.735-8.333-26.065-17.857c-0.554-0.989-1.061-2.001-1.527-3.028c1.096,3.283,2.525,6.451,4.494,9.312
    c3.336,4.844,8.355,7.979,13.332,10.929c3.128,1.853,6.386,3.487,9.462,5.426c0.833,0.524,1.653,1.143,2.482,1.77
    c0.217,0.163,14.498-11.518,15.87-12.605c5.175-4.104,10.647-8.688,13.609-14.722C242.883,53.913,229.601,32.358,216.252,17.482z"
    />
</g>
</svg>