<?xml version="1.0" encoding="utf-8"?>
<!-- Generator: Adobe Illustrator 27.5.0, SVG Export Plug-In . SVG Version: 6.00 Build 0)  -->
<svg version="1.1" xmlns="http://www.w3.org/2000/svg" xmlns:xlink="http://www.w3.org/1999/xlink" x="0px" y="0px"
	 viewBox="274 105 106 106">
	<g>
		<path style="fill:#63971C;" d="M301.759,193.578c6.906-1.146,13.868-1.899,20.805-2.818c2.598-0.709,5.17-1.504,7.696-2.464
			c2.508-0.955,4.983-2.086,7.4-3.339c1.931-1.17,3.837-2.383,5.703-3.658c16.484-11.285,27.253-29.096,33.35-47.814
			c1.911-5.866,3.372-12.599,3.448-18.787c-1.59,1.271-3.303,2.373-4.956,3.307c-15.839,8.952-35.066,10.648-51.445,18.689
			c-16.055,7.883-29.428,20.949-37.732,36.796c-4.591,8.763-7.682,18.489-8.016,28.353
			C284.864,196.95,293.466,194.952,301.759,193.578z"/>
		<path style="fill:#1E580C;" d="M377.662,120.146c-7.383,8.18-16.658,14.449-25.963,20.235
			c-9.259,5.757-18.629,11.345-27.926,17.042c-9.236,5.661-18.122,11.479-26.428,18.453c-7.116,5.976-14.278,14.034-17.51,22.882
			c-0.087,0.237,0.276,0.181,0.347,0.019c4.173-9.457,12.519-17.474,20.393-23.914c8.574-7.015,18.045-12.448,27.307-18.461
			c17.083-11.089,36.896-20.015,49.953-36.167C377.928,120.118,377.738,120.062,377.662,120.146z"/>
		<path style="fill:#1E580C;" d="M368.472,150.524c-8.1,12.539-19.068,22.928-32.696,29.207
			c-7.197,3.316-14.827,5.575-22.609,7.031c-4.29,0.802-8.619,1.334-12.927,2.023c-2.177,0.349-4.348,0.706-6.482,1.265
			c-1.668,0.436-3.338,0.893-5.072,0.933c-0.176,0.003-0.337-0.179-0.281-0.355c0.816-2.509,2.393-4.695,4.071-6.701
			c1.955-2.338,3.991-4.632,6.157-6.775c3.245-3.213,6.712-6.186,10.093-9.252c-2.072,1.072-4.113,2.203-6.104,3.426
			c-3.973,2.437-7.753,5.22-11.323,8.217c-3.439,2.888-6.69,6.081-8.808,10.091c-0.13,0.247-0.536,0.145-0.53-0.136
			c0.061-3.329,0.483-6.663,1.21-9.939c-2.981,7.09-4.899,14.645-5.158,22.284c6.852-4.893,15.454-6.891,23.747-8.265
			c6.906-1.146,13.868-1.899,20.805-2.818c2.598-0.709,5.17-1.504,7.696-2.464c2.508-0.955,4.983-2.086,7.4-3.339
			c1.931-1.17,3.837-2.383,5.703-3.658c14.981-10.256,25.24-25.901,31.563-42.719C373.088,142.721,370.928,146.721,368.472,150.524z
			"/>
	</g>
</svg>