<?xml version="1.0" encoding="utf-8"?>
<!-- Generator: Adobe Illustrator 27.5.0, SVG Export Plug-In . SVG Version: 6.00 Build 0)  -->
<svg version="1.1" xmlns="http://www.w3.org/2000/svg" xmlns:xlink="http://www.w3.org/1999/xlink" x="0px" y="0px"
	 viewBox="90 125 100 100" xml:space="preserve">
<g>
  <path style="fill:#63971C;" d="M167.897,180.645c-0.842,5.558-2.778,10.86-5.769,15.635c-3.129,4.994-7.202,9.117-11.224,13.381
    c-4.212,4.464-8.408,9.023-12.146,13.898c-0.273,0.357-0.538,0.719-0.804,1.08c-0.267-0.361-0.53-0.723-0.805-1.08
    c-3.737-4.875-7.934-9.435-12.146-13.898c-4.022-4.264-8.094-8.387-11.224-13.381c-2.991-4.774-4.927-10.077-5.769-15.635
    c-1.722-11.377-0.183-23.495,6.924-32.823c3.619-4.75,7.96-8.824,12.665-12.479c2.185-1.697,4.479-3.248,6.84-4.688
    c1.145-0.697,2.341-1.376,3.514-2.089c1.172,0.713,2.369,1.392,3.513,2.089c2.361,1.439,4.656,2.99,6.841,4.688
    c4.704,3.655,9.045,7.729,12.664,12.479C168.079,157.15,169.618,169.269,167.897,180.645z"/>
  <path style="fill:#63971C;" d="M160.973,147.822c-3.619-4.75-7.96-8.824-12.664-12.479
    c-2.185-1.697-4.479-3.248-6.841-4.688c-1.145-0.697-2.341-1.376-3.513-2.089c-0.023,0.015-0.048,0.028-0.072,0.043
    c0.92,6.561,1.491,13.17,1.78,19.79c0.668,15.334-0.005,30.674-0.516,46c-0.119,3.597-0.171,7.199-0.429,10.79
    c-0.237,3.316-0.551,6.628-0.735,9.947c-0.175,3.137-0.262,6.328-0.042,9.483c0.004,0.007,0.009,0.013,0.014,0.02
    c0.266-0.361,0.53-0.723,0.804-1.08c3.738-4.875,7.934-9.435,12.146-13.898c4.022-4.264,8.094-8.387,11.224-13.381
    c2.99-4.774,4.927-10.077,5.769-15.635C169.618,169.269,168.079,157.15,160.973,147.822z"/>
  <path style="fill:#1E580C;" d="M139.614,191.542c0.057-0.018,0.116-0.049,0.179-0.103
    c1.943-1.673,4.22-3.051,6.234-4.664c2.474-1.98,4.808-4.168,7.122-6.331c4.331-4.052,7.76-9.174,10.482-14.412
    c0.071-0.136-0.09-0.173-0.16-0.064c-3.173,4.883-6.904,9.722-11.146,13.714c-2.416,2.274-4.891,4.505-7.485,6.575
    c-1.724,1.375-3.632,2.713-5.19,4.293c0.239-5.71,0.657-11.425,0.803-17.131c0.009-0.33,0.012-0.658,0.02-0.986
    c3.311-2.301,6.706-4.417,9.765-7.076c3.293-2.861,7.36-5.457,9.768-9.172c0.097-0.149-0.097-0.187-0.182-0.073
    c-2.69,3.608-7.08,6.175-10.526,9.026c-2.791,2.309-6.024,4.004-8.804,6.297c0.092-4.573,0.109-9.148,0.091-13.725
    c1.886-2.408,3.463-5.22,5.114-7.769c1.719-2.655,4.057-6.083,4.462-9.294c0.017-0.133-0.168-0.079-0.19,0.013
    c-0.827,3.369-3.48,6.73-5.342,9.605c-1.354,2.091-2.783,4.111-4.048,6.243c-0.008-1.689-0.02-3.381-0.033-5.07
    c-0.031-3.952-0.112-7.867-0.493-11.805c-0.299-3.095-0.55-6.602-1.917-9.436c-0.021-0.043-0.092,0.012-0.081,0.049
    c0.894,3.102,0.764,6.639,0.984,9.846c0.29,4.219,0.38,8.398,0.371,12.628c-0.001,0.829-0.006,1.655-0.009,2.483
    c-3.712-5.531-7.97-10.566-13.445-14.48c-0.063-0.047-0.172,0.068-0.111,0.12c2.726,2.32,5.181,4.991,7.546,7.675
    c2.188,2.48,3.822,5.449,6.005,7.938c-0.021,5.921-0.061,11.839-0.109,17.759c-3.688-2.916-7.351-5.853-10.787-9.072
    c-2.15-2.014-4.307-4.024-6.498-5.991c-2.312-2.073-4.321-4.516-6.858-6.323c-0.038-0.027-0.104,0.04-0.066,0.072
    c2.139,1.906,3.739,4.319,5.747,6.362c2.067,2.102,4.209,4.11,6.361,6.125c3.818,3.575,7.86,6.775,12.095,9.807
    c-0.002,0.098-0.002,0.195-0.002,0.292c-0.049,5.785-0.441,11.599-0.806,17.416c-2.19-1.22-4.296-2.948-6.23-4.482
    c-2.447-1.938-4.897-3.931-7.109-6.138c-4.45-4.438-8.68-9.203-11.611-14.796c-0.033-0.063-0.13,0.02-0.105,0.075
    c2.541,5.723,6.306,10.184,10.498,14.759c2.312,2.522,5.04,4.645,7.73,6.746c2.054,1.603,4.378,3.578,6.776,4.663
    c-0.274,4.408-0.515,8.817-0.575,13.219c-1.818-1.502-4.191-2.528-6.203-3.735c-3.089-1.854-6.068-3.749-8.749-6.167
    c-5.196-4.689-9.4-9.709-11.953-16.308c-0.025-0.064-0.122,0.021-0.105,0.076c1.991,6.356,5.456,11.195,10.187,15.784
    c2.208,2.143,4.612,4.06,7.231,5.679c1.456,0.9,2.936,1.761,4.404,2.642c1.659,0.995,3.564,1.614,5.143,2.675
    c0.012,0.008,0.025,0.009,0.037,0.013c-0.033,3.481,0.049,6.956,0.34,10.419c0.017,0.21,0.312,0.015,0.309-0.14
    c-0.067-3.68,0.173-7.342,0.434-11.003c2.273-0.843,4.33-2.5,6.292-3.897c2.86-2.034,5.521-4.286,7.907-6.861
    c2.044-2.21,4.003-4.226,5.679-6.747c1.923-2.896,3.293-5.91,4.711-9.064c0.048-0.107-0.104-0.108-0.148-0.033
    c-3.179,5.55-6.413,10.627-10.965,15.175c-4.023,4.021-8.516,7.98-13.438,10.901c0.24-3.323,0.485-6.645,0.524-9.977
    C139.504,194.768,139.553,193.154,139.614,191.542z"/>
  <path style="fill:#58AE35;" d="M160.973,147.822c-3.619-4.75-7.96-8.824-12.664-12.479
    c-1.491-1.157-3.036-2.242-4.614-3.274c1.53,1.168,2.991,2.431,4.385,3.749c3.995,3.775,7.875,7.963,11.095,12.428
    c3.727,5.17,6.43,11.184,7.306,17.529c0.862,6.245,0.103,12.717-1.906,18.683c-2.039,6.047-5.272,11.382-9.377,16.241
    c-4.265,5.051-8.85,10.091-14.438,13.708c-0.113,0.073-0.251,0.018-0.321-0.084c-1.626-2.381-0.786-5.696-1.005-8.39
    c-0.158-1.94-0.368-3.876-0.562-5.813c-0.417,2.677-1.048,5.301-1.533,7.966c-0.455,2.51-0.866,5.04-1.788,7.431
    c-0.048,0.125-0.154,0.193-0.289,0.165c-3.84-0.829-7.133-3.61-9.875-6.284c-2.846-2.775-5.381-5.838-7.795-8.992
    c-3.364-4.394-6.305-9.156-8.352-14.258c1.044,3.556,2.555,6.963,4.541,10.133c3.129,4.994,7.202,9.117,11.224,13.381
    c4.212,4.464,8.408,9.023,12.146,13.898c0.274,0.357,0.538,0.719,0.805,1.08c0.266-0.361,0.53-0.723,0.804-1.08
    c3.738-4.875,7.934-9.435,12.146-13.898c4.022-4.264,8.094-8.387,11.224-13.381c2.99-4.774,4.927-10.077,5.769-15.635
    C169.618,169.269,168.079,157.15,160.973,147.822z"/>
</g>
</svg>