<?xml version="1.0" encoding="utf-8"?>
<svg width="33" height="28" viewBox="0 0 33 28" xmlns="http://www.w3.org/2000/svg">
  <path fill="#CFE7FE" d="M1.01611 25.4923C1.96265 24.5343 4.86651 20.7024 4.86651 20.7024V13.9965C4.86651 13.9965 4.84689 10.8464 6.79171 8.24858C8.73653 5.65074 13.4741 2.9423 16.4177 2.50068C17.5675 2.32817 19.0332 2.29047 20.5493 2.25147C22.9146 2.19062 25.4028 2.12661 27.0063 1.54269C28.5821 0.968897 28.9724 0.782581 29.3835 0.701359C29.6589 0.646944 29.9436 0.639698 30.6004 0.594709C32.2374 0.482567 32.6589 3.37701 31.8193 6.33261C31.6034 7.09289 31.3992 7.76519 31.2081 8.39414C30.6427 10.2557 30.1927 11.7374 29.8941 13.9965C29.4858 17.0854 28.252 18.3819 26.2274 20.5093C26.1669 20.5729 26.1056 20.6372 26.0437 20.7024C23.6388 23.2322 22.2145 24.3201 18.3429 24.5343C16.0252 24.6625 13.5802 23.9201 11.4826 23.2832C9.44772 22.6653 7.7397 22.1466 6.79171 22.6183C5.7401 23.1416 4.97571 24.5224 4.34164 25.6678C3.8149 26.6192 3.3781 27.4082 2.94131 27.4082C1.97871 27.4082 0.0695599 26.4503 1.01611 25.4923ZM22.4373 4.34135C22.4958 4.14883 22.3872 3.9453 22.1946 3.88676C22.0021 3.82823 21.7986 3.93685 21.7401 4.12938C21.4285 5.15396 21.191 6.0006 21.1552 6.8912C21.1217 7.72639 21.2657 8.57949 21.6532 9.64944C20.777 10.325 19.8854 11.0013 18.9775 11.6785C18.2554 12.217 17.5229 12.756 16.7796 13.2954C16.4422 12.0569 16.3011 11.0707 16.3147 10.107C16.33 9.01514 16.544 7.9313 16.9238 6.51594C16.976 6.32159 16.8607 6.12176 16.6663 6.0696C16.472 6.01745 16.2722 6.13272 16.22 6.32707C15.835 7.7616 15.6027 8.91431 15.586 10.0968C15.5703 11.2168 15.7482 12.3448 16.1501 13.7505C15.3301 14.3409 14.4969 14.9318 13.6497 15.5232C12.8604 16.0742 12.0588 16.6257 11.2446 17.1775C11.102 16.7883 11.0132 16.2664 10.9732 15.6525C10.9206 14.8441 10.9554 13.9301 11.027 13.0646C11.0985 12.2008 11.2058 11.3941 11.2954 10.8028C11.3401 10.5074 11.3804 10.2664 11.4094 10.0996C11.4239 10.0162 11.4355 9.95134 11.4435 9.90759L11.4527 9.85808L11.455 9.84577L11.4556 9.84283L11.4557 9.84217L11.4557 9.84207L11.4557 9.84205L11.0978 9.7736L11.4557 9.84207C11.4935 9.64442 11.364 9.45355 11.1663 9.41573C10.9687 9.37791 10.7778 9.50748 10.74 9.70512L11.0639 9.7671C10.74 9.70513 10.74 9.70519 10.74 9.70528L10.7399 9.70557L10.7397 9.70657L10.739 9.7102L10.7364 9.72393L10.7267 9.77638C10.7184 9.82215 10.7063 9.88912 10.6914 9.9748C10.6616 10.1461 10.6205 10.3924 10.5749 10.6937C10.4836 11.2957 10.374 12.1195 10.3008 13.0046C10.2277 13.888 10.1902 14.8414 10.246 15.6998C10.2913 16.3952 10.3996 17.0666 10.6252 17.5908C10.087 17.9328 9.7258 18.0922 9.34834 18.2561L9.31495 18.2705C8.87072 18.4632 8.39634 18.669 7.631 19.1586C7.46148 19.267 7.41197 19.4923 7.52041 19.6618C7.62884 19.8314 7.85416 19.8809 8.02368 19.7724C8.73999 19.3142 9.17341 19.1262 9.60326 18.9398L9.63845 18.9245C10.097 18.7255 10.5568 18.5212 11.3017 18.0186C12.1793 17.4263 13.0424 16.8344 13.8914 16.243C16.5189 17.5051 18.0549 17.6722 19.9993 17.8838L19.9994 17.8838C20.5044 17.9387 21.0368 17.9966 21.6231 18.0775C21.8225 18.105 22.0064 17.9657 22.0339 17.7664C22.0614 17.567 21.9221 17.3831 21.7227 17.3556C21.1094 17.271 20.562 17.2113 20.0503 17.1554C18.2281 16.9564 16.8591 16.8069 14.5799 15.7614C15.3256 15.2375 16.0606 14.714 16.7852 14.1909C17.6138 13.5928 18.4289 12.9952 19.2312 12.3982C20.3748 12.978 21.3248 13.3706 22.319 13.5953C23.3736 13.8338 24.4575 13.8789 25.8522 13.7806C26.0529 13.7665 26.2042 13.5923 26.19 13.3916C26.1759 13.1908 26.0017 13.0396 25.801 13.0537C24.4495 13.1489 23.442 13.1021 22.4797 12.8846C21.6581 12.6988 20.8546 12.3854 19.8847 11.9099C20.7068 11.2932 21.5155 10.6772 22.3115 10.0619C22.9748 9.54913 23.6294 9.03689 24.2757 8.5252C25.0909 8.88457 25.7678 9.07309 26.4559 9.12499C27.1963 9.18083 27.9248 9.07622 28.8154 8.89155C29.0125 8.8507 29.1391 8.65785 29.0982 8.46081C29.0574 8.26377 28.8645 8.13716 28.6675 8.17801C27.7939 8.35914 27.1466 8.4463 26.5107 8.39834C26.0218 8.36146 25.5247 8.24336 24.9268 8.00775C26.3898 6.84025 27.8105 5.67568 29.1943 4.51447C29.3484 4.38512 29.3685 4.1553 29.2392 4.00116C29.1098 3.84701 28.88 3.82691 28.7259 3.95626C27.197 5.23918 25.6232 6.52606 23.997 7.81633C23.4248 8.27028 22.8461 8.72466 22.2606 9.17943C21.9575 8.2837 21.8567 7.58552 21.8834 6.92041C21.9149 6.13497 22.1241 5.37135 22.4373 4.34135Z"/>
</svg>
